<svg xmlns="http://www.w3.org/2000/svg" xmlns:xlink="http://www.w3.org/1999/xlink" version="1.1" xml:space="preserve" width="60" height="61" style=""><rect id="backgroundrect" width="100%" height="100%" x="0" y="0" fill="none" stroke="none" class="" style=""/><g class="currentLayer" style=""><title>Layer 1</title><g id="svg_1" class="" fill="#dadada" fill-opacity="1"><path d="M32.88795868539202,0 C17.913738652017535,0 5.775122412277225,12.294223047525591 5.775122412277225,27.46039993433772 c0,4.5394615276069485 1.0944014641533468,8.817615363531035 3.0198040400678674,12.590169200664091 c1.837202457915321,-1.5812153808344416 3.6984049479392684,-2.2575769176786897 5.193606948306668,-2.616115378359828 c0.028800038530351287,-3.2262384538240028 1.4802019802995088,-6.5606461381585826 4.078205456058274,-9.218692285648917 c2.6022034813777752,-2.663515378246487 5.9616079757827,-4.191253836131878 9.215412328909672,-4.191861528438117 c2.5398033978953465,0 4.864206507615776,0.9473923054269394 6.545408756825032,2.667161532083923 c3.9606052987260068,4.053307682615577 3.306004422963233,11.071546127372292 -1.489201992340243,15.977446115641486 c-2.603403482983206,2.6641230705527263 -5.962807977388132,4.191861528438117 -9.216612330515103,4.191861528438117 c-0.8844011832028698,0 -1.752602344732415,-0.11728461510416915 -2.5836034564935906,-0.3494230760875506 c-0.08400011238019114,-0.002430769224956876 -0.1920002568690085,0.0054692307561529695 -0.26100034918130827,0.015192307655980458 c-1.090801459337052,0.40958461440523364 -2.092202799069471,0.6174153831390444 -3.0132040312379957,0.7802769212111546 c-0.9594012835423257,0.16954615344074175 -1.360801820559094,0.25705384553918903 -1.6854022548282617,0.4746076911728293 c0.022800030503194745,0.29412307621978157 0.06840009150958436,0.6605615368820292 0.09900013244808256,0.8969538440090847 c4.681806263590219,3.9001692214432944 10.675814282719566,6.242215369689233 17.211023025898424,6.242215369689233 C47.861578717963795,54.92019217636921 60.00019495770412,42.625969128843614 60.00019495770412,27.46039993433772 S47.861578717963795,0 32.88795868539202,0 zM42.69377180417389,22.902707637543593 c-2.9304039204632364,0 -5.3064070992172105,-2.4058538404010585 -5.3064070992172105,-5.374430756379631 S39.76336788371066,12.153846124784334 42.69377180417389,12.153846124784334 S48.00017890339111,14.559699965185398 48.00017890339111,17.52827688116396 S45.624775725439825,22.902707637543593 42.69377180417389,22.902707637543593 z" id="svg_2" fill="#dadada" fill-opacity="1"/><path d="M16.74733709153832,44.31292297096369 c0.7782010411221986,-0.13733846121006338 1.6494022066653242,-0.3147846146319148 2.5524034147523755,-0.6611692291882689 c0.573000766593447,-0.21998461485859688 1.5672020966932791,-0.21147692257124803 1.8858025229352875,-0.11424615357297305 c0.60840081395367,0.18595384570920084 1.258801684097435,0.28379230701371455 1.9362025903634033,0.28379230701371455 c2.458203288726019,0 5.040606743614178,-1.2001923048224536 7.084209477663682,-3.291261530591599 c3.6240048484025267,-3.708138452671701 4.278605724165302,-8.847999978842997 1.489201992340243,-11.701723048942355 c-1.1130014890375317,-1.1388153818922921 -2.6802035857308093,-1.765953841931165 -4.4124059031708915,-1.765953841931165 c-2.458203288726019,0 -5.04000674281146,1.1995846125162148 -7.083609476860967,3.2906538382853605 c-2.490003331269948,2.5480538400610353 -3.5700047761581173,5.768215370822644 -3.1020041500399116,8.460899979768614 c0.12240016375399276,0.7061384598499704 -0.5394007216413703,1.2147769201721956 -1.0716014336501518,1.3089692276392741 c-1.6062021488697953,0.28379230701371455 -3.8052050908226556,0.6721076907005742 -5.9142079123681635,2.830023070156032 c-2.159402888973626,2.210176917792032 -1.8090024201876869,4.881592296019627 -1.5528020774281037,6.8322845990475125 c0.24420032670526995,1.8613615340107224 0.2748003676437682,2.6896461474147735 -0.41880056029552487,3.3988230687959393 c-0.7824010467412088,0.8003307673170493 -1.8240024402555766,1.136992304973575 -3.0306040545167487,1.5265230732729131 c-0.23580031546725108,0.07596153827990218 -0.476400637356227,0.15617692270347905 -0.7218009656669281,0.23699999943329517 c-3.3774045184863946,1.112684612724006 -4.264805705702843,5.6077846019754904 -4.386005867851404,5.816223063015543 C-0.001085315466346965,60.76801523930918 -0.0004853146636284375,60.769230623921665 0.005514693363521997,60.769230623921665 c0.16920022636581364,-0.011546153818545143 3.2364043298482175,-2.1645999948240906 5.598607490139731,-2.6392076859969187 c1.4820019827076565,-0.2977692300572167 4.012205367759554,-0.4107999990177118 5.521207386589414,-1.9537307645590811 c2.212802960415318,-2.2642615330473213 1.8570024844049389,-4.973961526567988 1.5972021368290612,-6.951999983376641 c-0.2382003186781137,-1.8139615341240622 -0.27120036282747445,-2.619153839891025 0.3744005008945663,-3.2791076844668128 C14.262733767492819,44.751676816068404 15.358935234054307,44.55843066268434 16.74733709153832,44.31292297096369 z" id="svg_3" fill="#dadada" fill-opacity="1"/></g></g></svg>