<svg xmlns="http://www.w3.org/2000/svg" xmlns:xlink="http://www.w3.org/1999/xlink" version="1.1" xml:space="preserve" width="25" height="25" style=""><rect id="backgroundrect" width="100%" height="100%" x="0" y="0" fill="none" stroke="none" class="" style=""/><g class="currentLayer" style=""><title>Layer 1</title><g id="svg_1" class="selected" fill="#dadada" fill-opacity="1"><path d="M13.492557863714442,0 C7.3492599396050595,0 2.3692919826127588,4.979938170516208 2.3692919826127588,11.123199349972142 c0,1.8387691233135326 0.4489872746554282,3.5716920989664467 1.2388996454719126,5.099815086587653 c0.753727541115636,-0.6404922702626253 1.5173012943947686,-0.9144614850213887 2.1307203121805833,-1.059692245765028 c0.011815454596195497,-1.3068306928609839 0.6072651351836296,-2.6574767677768265 1.6731176018820961,-3.7341536279339076 c1.0675755538270784,-1.0788922446430005 2.445799101412462,-1.6977229777099647 3.7806993154784636,-1.6979691315417331 c1.0419754022019878,0 1.9955810502365976,0.38375382372768385 2.685308212289509,1.0803691676336138 c1.6248711622809646,1.6418460578984289 1.3563157255216054,4.4846766609972235 -0.6109574647449407,6.47187654486739 c-1.068067864435253,1.0791383984747696 -2.4462914120206376,1.6979691315417331 -3.7811916260866383,1.6979691315417331 c-0.3628329182248363,0 -0.719019643239312,-0.04750768953139392 -1.0599447394003687,-0.1415384532671062 c-0.03446174257223682,-0.0009846153270755221 -0.07876969730796994,0.002215384485919925 -0.10707755727802161,0.006153845794222008 c-0.4475103428309035,0.1659076826122255 -0.858343545352783,0.25009229307718206 -1.2361919371269514,0.3160615199912418 c-0.3936023312357619,0.06867691906351754 -0.5582802296702359,0.10412307083823628 -0.6914502491815226,0.19224614261149536 c0.009353901555321426,0.11913845457613807 0.02806170466596431,0.26756921513277265 0.04061562517442203,0.36332305569086687 c1.9207498377940262,1.5798152922926714 4.3798413256272095,2.5284921599299333 7.060964897747231,2.5284921599299333 C19.635609632519742,22.24615254611252 24.615577589512046,17.26621437559631 24.615577589512046,11.123199349972142 S19.635609632519742,0 13.492557863714442,0 zM17.51547399841491,9.27704561170554 c-1.2022225051628896,0 -2.1769975093490155,-0.9745230199729954 -2.1769975093490155,-2.1769844881639733 S16.31325149325202,4.923076635377597 17.51547399841491,4.923076635377597 S19.692471507763933,5.897599655350595 19.692471507763933,7.100061123541569 S18.717942658881885,9.27704561170554 17.51547399841491,9.27704561170554 z" id="svg_2" fill="#dadada" fill-opacity="1"/><path d="M6.870734028459147,17.949537412586725 c0.31926342940136504,-0.05563076597976697 0.6766809309362787,-0.12750768485627995 1.0471446635878232,-0.2678153689645416 c0.23507831540347268,-0.08910768710033466 0.6429576542763037,-0.08566153345557039 0.7736661207467157,-0.046276920372549504 c0.2496014783446295,0.07532307252127739 0.5164338279753774,0.11495383943606703 0.794343166290058,0.11495383943606703 c1.008498280846101,0 2.067950709638295,-0.486153817743538 2.9063556753599986,-1.3331691528602538 c1.48677803668793,-1.5020306814537052 1.7553334734472898,-3.5839997905548913 0.6109574647449407,-4.7399381845415505 c-0.4566180890821377,-0.46129228073488093 -1.099575743358441,-0.7153230351203653 -1.810226106258781,-0.7153230351203653 c-1.008498280846101,0 -2.067704554334207,0.4859076639117693 -2.906109520055911,1.332922999028485 c-1.0215445119627335,1.0321230166069133 -1.4646240593200632,2.3364921711502076 -1.2726229221318874,3.4271997997181143 c0.050215682033830776,0.2860307525154386 -0.22129361837457795,0.49206150970599133 -0.4396333731001066,0.5302153536301675 c-0.6589577490419848,0.11495383943606703 -1.5611169385223274,0.27224613793638125 -2.426352832389557,1.1463383945476735 c-0.8859129394105733,0.8952614861434162 -0.7421582418235285,1.9773537305994118 -0.637049926978206,2.7675075305775163 c0.10018520876357422,0.7539691867080796 0.11273912927203186,1.0894768594090625 -0.17181640225300954,1.3767383810833453 c-0.3209865165299772,0.32418459643961506 -0.7483121244257132,0.46055381923957434 -1.2433304409454857,0.6183384254034265 c-0.0967390345063506,0.03076922897111001 -0.19544731144540026,0.06326153476460224 -0.29612483081714935,0.09599999438986336 c-1.3856082067080062,0.45070766596881906 -1.7496719014532796,2.271507559563223 -1.7993952728789355,2.355938323859949 C-0.0004451298366978384,24.614890869224443 -0.00019897453260925234,24.615383176887985 0.0022625785082623123,24.615383176887985 c0.06941579575264849,-0.004676922803608725 1.3277617102474661,-0.8767999487607503 2.296875142439582,-1.0690460913722455 c0.608003601095892,-0.12061537756675134 1.6460405184324818,-0.16639999027576322 2.2651211082123073,-0.7913845691369487 c0.907820761474352,-0.9171691771708463 0.7618506661505209,-2.0147691130282817 0.6552654194806738,-2.8159998354359863 c-0.09772365572270023,-0.7347691878301066 -0.1112621974475075,-1.0609230149238724 0.1536009097505413,-1.3282460762248758 C5.8514049142332025,18.12726047912385 6.301130654800891,18.048983560621352 6.870734028459147,17.949537412586725 z" id="svg_3" fill="#dadada" fill-opacity="1"/></g></g></svg>