<svg xmlns="http://www.w3.org/2000/svg" xmlns:xlink="http://www.w3.org/1999/xlink" version="1.1" xml:space="preserve" width="100" height="100" style=""><rect id="backgroundrect" width="100%" height="100%" x="0" y="0" fill="none" stroke="none" class="" style=""/><g class="currentLayer" style=""><title>Layer 1</title><g id="svg_1" class="" fill="#dadada" fill-opacity="1"><path d="M54.04395232248305,0 C29.086952322483057,0 8.855952322483063,20.230999999999995 8.855952322483063,45.18799999999999 c0,7.47 1.824,14.51 5.033,20.718 c3.062,-2.6020000000000003 6.164,-3.715 8.656,-4.305 c0.048000000000000036,-5.309 2.467,-10.796 6.797,-15.17 c4.337,-4.383 9.936,-6.897 15.359,-6.898 c4.233,0 8.107,1.5590000000000002 10.909,4.389 c6.601,6.67 5.51,18.219 -2.482,26.292 c-4.339,4.384 -9.938,6.898 -15.361,6.898 c-1.474,0 -2.9210000000000003,-0.19300000000000017 -4.306,-0.5750000000000005 c-0.14,-0.004000000000000004 -0.32000000000000034,0.009000000000000015 -0.4350000000000003,0.025000000000000026 c-1.818,0.6740000000000008 -3.487,1.016 -5.022,1.284 c-1.5990000000000002,0.279 -2.268,0.42300000000000026 -2.809,0.781 c0.03800000000000001,0.48400000000000026 0.11400000000000009,1.087 0.1650000000000002,1.476 c7.803,6.418 17.793,10.272 28.685,10.272 C78.99995232248307,90.375 99.23095232248306,70.144 99.23095232248306,45.18799999999999 S78.99995232248307,0 54.04395232248305,0 zM70.38695232248307,37.68799999999999 c-4.884,0 -8.844,-3.959 -8.844,-8.844 S65.50295232248305,20 70.38695232248307,20 S79.23095232248306,23.959000000000003 79.23095232248306,28.843999999999994 S75.27195232248306,37.68799999999999 70.38695232248307,37.68799999999999 z" id="svg_2" fill="#dadada" fill-opacity="1"/><path d="M27.14295232248307,72.92000000000002 c1.2970000000000002,-0.2260000000000002 2.749,-0.518 4.254,-1.088 c0.9550000000000005,-0.36200000000000027 2.612,-0.3480000000000004 3.143,-0.18800000000000014 c1.014,0.30600000000000027 2.098,0.467 3.227,0.467 c4.097,0 8.401,-1.975 11.807,-5.416 c6.04,-6.102 7.131,-14.56 2.482,-19.256 c-1.855,-1.874 -4.467,-2.906 -7.354,-2.906 c-4.097,0 -8.4,1.974 -11.806000000000001,5.415 c-4.15,4.193 -5.95,9.492 -5.17,13.923 c0.20400000000000001,1.162 -0.8990000000000007,1.999 -1.786,2.154 c-2.677,0.467 -6.3420000000000005,1.106 -9.857,4.657 c-3.599,3.637 -3.015,8.033 -2.588,11.243 c0.40700000000000025,3.063 0.458,4.426 -0.6980000000000008,5.593 c-1.304,1.3170000000000002 -3.04,1.871 -5.051,2.512 c-0.39300000000000035,0.125 -0.794,0.257 -1.203,0.39000000000000035 c-5.6290000000000004,1.831 -7.108,9.228 -7.3100000000000005,9.571 C-0.7710476775169468,99.99799999999999 -0.770047677516942,100 -0.7600476775169511,100 c0.28200000000000025,-0.019000000000000017 5.394,-3.5620000000000003 9.331,-4.343 c2.47,-0.49000000000000027 6.687,-0.6760000000000008 9.202,-3.215 c3.688,-3.726 3.095,-8.185 2.662,-11.44 c-0.3970000000000004,-2.985 -0.452,-4.3100000000000005 0.6240000000000006,-5.396 C23.001952322483078,73.642 24.828952322483076,73.32400000000001 27.14295232248307,72.92000000000002 z" id="svg_3" fill="#dadada" fill-opacity="1"/></g></g></svg>